<svg width="80" height="80" viewBox="0 0 80 80" fill="none" xmlns="http://www.w3.org/2000/svg">
<circle cx="40" cy="40" r="40" fill="white"/>
<path d="M25.5273 40.6348C25.5273 42.0488 25.1426 43.1309 24.373 43.8809C23.6074 44.627 22.5039 45 21.0625 45H18.6895V36.4336H21.3145C22.6465 36.4336 23.6816 36.8027 24.4199 37.541C25.1582 38.2793 25.5273 39.3105 25.5273 40.6348ZM24.4727 40.6699C24.4727 39.5527 24.1914 38.7109 23.6289 38.1445C23.0703 37.5781 22.2383 37.2949 21.1328 37.2949H19.6855V44.1387H20.8984C22.0859 44.1387 22.9785 43.8477 23.5762 43.2656C24.1738 42.6797 24.4727 41.8145 24.4727 40.6699ZM32.2188 45H27.4434V36.4336H32.2188V37.3184H28.4395V40.0781H31.9902V40.957H28.4395V44.1094H32.2188V45ZM36.7598 45H35.7637V37.3184H33.0508V36.4336H39.4727V37.3184H36.7598V45ZM46.1523 45L45.0859 42.2754H41.6523L40.5977 45H39.5898L42.9766 36.3984H43.8145L47.1836 45H46.1523ZM44.7754 41.3789L43.7793 38.7246C43.6504 38.3887 43.5176 37.9766 43.3809 37.4883C43.2949 37.8633 43.1719 38.2754 43.0117 38.7246L42.0039 41.3789H44.7754ZM50.6875 45H47.6758V44.4258L48.6836 44.2207V37.2246L47.6758 37.0078V36.4336H50.6875V37.0078L49.6797 37.2246V44.2207L50.6875 44.4258V45ZM52.3574 45V36.4336H53.3535V44.0977H57.1328V45H52.3574ZM63.4258 42.7207C63.4258 43.4746 63.1523 44.0625 62.6055 44.4844C62.0586 44.9062 61.3164 45.1172 60.3789 45.1172C59.3633 45.1172 58.582 44.9863 58.0352 44.7246V43.7637C58.3867 43.9121 58.7695 44.0293 59.1836 44.1152C59.5977 44.2012 60.0078 44.2441 60.4141 44.2441C61.0781 44.2441 61.5781 44.1191 61.9141 43.8691C62.25 43.6152 62.418 43.2637 62.418 42.8145C62.418 42.5176 62.3574 42.2754 62.2363 42.0879C62.1191 41.8965 61.9199 41.7207 61.6387 41.5605C61.3613 41.4004 60.9375 41.2188 60.3672 41.0156C59.5703 40.7305 59 40.3926 58.6562 40.002C58.3164 39.6113 58.1465 39.1016 58.1465 38.4727C58.1465 37.8125 58.3945 37.2871 58.8906 36.8965C59.3867 36.5059 60.043 36.3105 60.8594 36.3105C61.7109 36.3105 62.4941 36.4668 63.209 36.7793L62.8984 37.6465C62.1914 37.3496 61.5039 37.2012 60.8359 37.2012C60.3086 37.2012 59.8965 37.3145 59.5996 37.541C59.3027 37.7676 59.1543 38.082 59.1543 38.4844C59.1543 38.7812 59.209 39.0254 59.3184 39.2168C59.4277 39.4043 59.6113 39.5781 59.8691 39.7383C60.1309 39.8945 60.5293 40.0684 61.0645 40.2598C61.9629 40.5801 62.5801 40.9238 62.916 41.291C63.2559 41.6582 63.4258 42.1348 63.4258 42.7207Z" fill="#473723"/>
</svg>
