<svg width="165" height="16" viewBox="0 0 165 16" fill="none" xmlns="http://www.w3.org/2000/svg">
<path d="M8.86719 15.293H0.996094L0.410156 15.2832V0.712891C0.800781 0.70638 3.65234 0.703125 8.96484 0.703125V1.9043H1.5918V7.05078H8.90625V8.24219H1.5918V14.0918H8.86719V15.293ZM20.0098 15.2832H11.3086V0.703125H12.5V14.082H20.0098V15.2832ZM30.0781 15.293H22.207L21.6211 15.2832V0.712891C22.0117 0.70638 24.8633 0.703125 30.1758 0.703125V1.9043H22.8027V7.05078H30.1172V8.24219H22.8027V14.0918H30.0781V15.293ZM45.0391 13.3398C44.5508 13.8086 44.1113 14.1764 43.7207 14.4434C43.3171 14.7233 42.8418 14.9707 42.2949 15.1855C41.39 15.5501 40.4492 15.7324 39.4727 15.7324C38.0534 15.7324 36.7611 15.3841 35.5957 14.6875C34.4303 13.9844 33.5026 13.0436 32.8125 11.8652C32.1224 10.6868 31.7773 9.38477 31.7773 7.95898C31.7773 6.52669 32.1224 5.22135 32.8125 4.04297C33.5026 2.86458 34.4303 1.92708 35.5957 1.23047C36.7611 0.533854 38.0534 0.185547 39.4727 0.185547C40.4362 0.185547 41.3151 0.338542 42.1094 0.644531C42.9102 0.950521 43.7663 1.47135 44.6777 2.20703L43.9453 3.14453C43.444 2.73438 43.0339 2.4349 42.7148 2.24609C42.3958 2.05729 42.0215 1.88802 41.5918 1.73828C40.9082 1.50391 40.2018 1.38672 39.4727 1.38672C38.2812 1.38672 37.194 1.67969 36.2109 2.26562C35.2279 2.85156 34.4401 3.64258 33.8477 4.63867C33.2617 5.62826 32.9688 6.73503 32.9688 7.95898C32.9688 9.16992 33.2617 10.2734 33.8477 11.2695C34.4336 12.2591 35.2181 13.0501 36.2012 13.6426C37.1908 14.235 38.2812 14.5312 39.4727 14.5312C40.2734 14.5312 41.0579 14.3815 41.8262 14.082C42.5944 13.7826 43.2682 13.3626 43.8477 12.8223L43.8672 8.37891L45.0586 8.38867L45.0391 13.3398ZM60.166 15.293L58.877 15.2832L56.2402 9.32617H50.2832L47.6367 15.2832L46.3477 15.293L52.8027 0.703125H53.7402L60.166 15.293ZM55.7129 8.125L53.2715 2.59766L50.8203 8.125H55.7129ZM74.082 15.2832H73.0371L62.832 2.80273V15.2832H61.6211V0.712891H62.6758L72.8809 13.1934V0.712891H74.082V15.2832ZM84.7852 15.293L76.0352 15.2832V14.5215C77.0508 12.8353 77.8158 11.5658 78.3301 10.7129C78.8444 9.86003 79.235 9.21224 79.502 8.76953C79.7754 8.32682 80.0358 7.89714 80.2832 7.48047C80.5501 7.03125 80.9473 6.36719 81.4746 5.48828C82.0085 4.60286 82.7344 3.39844 83.6523 1.875H76.543V0.683594H85.3027V1.44531L85.1074 1.73828L77.6758 14.1016H84.7852V15.293ZM99.9707 15.293L98.6816 15.2832L96.0449 9.32617H90.0879L87.4414 15.2832L86.1523 15.293L92.6074 0.703125H93.5449L99.9707 15.293ZM95.5176 8.125L93.0762 2.59766L90.625 8.125H95.5176ZM116.465 15.2832H115.264V8.16406H109.004V15.2832H107.812V0.693359H109.004V6.96289H115.264V0.693359H116.465V15.2832ZM127.031 14.4043C128.236 14.4043 129.329 14.1081 130.312 13.5156C131.296 12.9167 132.077 12.1224 132.656 11.1328C133.242 10.1367 133.535 9.03646 133.535 7.83203C133.535 6.92057 133.366 6.06771 133.027 5.27344C132.695 4.47917 132.23 3.78255 131.631 3.18359C131.038 2.57812 130.348 2.10612 129.561 1.76758C128.773 1.42904 127.93 1.25977 127.031 1.25977C125.84 1.25977 124.753 1.55273 123.77 2.13867C122.786 2.72461 121.999 3.51562 121.406 4.51172C120.82 5.5013 120.527 6.60807 120.527 7.83203C120.527 9.04297 120.82 10.1465 121.406 11.1426C121.992 12.1322 122.777 12.9232 123.76 13.5156C124.743 14.1081 125.833 14.4043 127.031 14.4043ZM127.031 15.6055C125.618 15.6055 124.326 15.2572 123.154 14.5605C121.989 13.8574 121.061 12.9167 120.371 11.7383C119.681 10.5599 119.336 9.25781 119.336 7.83203C119.336 6.39974 119.681 5.0944 120.371 3.91602C121.068 2.73763 121.999 1.80013 123.164 1.10352C124.329 0.406901 125.618 0.0585938 127.031 0.0585938C128.451 0.0585938 129.743 0.410156 130.908 1.11328C132.074 1.8099 133.001 2.7474 133.691 3.92578C134.382 5.09766 134.727 6.39974 134.727 7.83203C134.727 9.2513 134.382 10.5501 133.691 11.7285C133.008 12.9069 132.083 13.8477 130.918 14.5508C129.753 15.2539 128.457 15.6055 127.031 15.6055ZM139.668 15.293H138.477V1.9043H134.727V0.703125H143.418V1.9043H139.668V15.293ZM153.438 15.293H145.566L144.98 15.2832V0.712891C145.371 0.70638 148.223 0.703125 153.535 0.703125V1.9043H146.162V7.05078H153.477V8.24219H146.162V14.0918H153.438V15.293ZM164.58 15.2832H155.879V0.703125H157.07V14.082H164.58V15.2832Z" fill="white"/>
</svg>
